<svg xmlns="http://www.w3.org/2000/svg" width="45.349" height="45.349" viewBox="0 0 45.349 45.349">
  <g id="supplier" transform="translate(-1 -1)">
    <path id="Path_295" data-name="Path 295" d="M44.725,20.1a2.182,2.182,0,0,0,.161-.816V3.194A2.2,2.2,0,0,0,42.692,1H25.137a2.2,2.2,0,0,0-2.194,2.194V19.286a2.182,2.182,0,0,0,.161.816,2.19,2.19,0,0,0-1.624,2.109v3.657H20.017v2.926H18.554v2.374l-4.937,1.411a15.94,15.94,0,0,0-.914-1.456V25.84a3.2,3.2,0,0,0,2.926-3.2V21.276l2.194-.731v-.527A12.783,12.783,0,0,0,16.2,15.03a2.973,2.973,0,0,0-.249-.4,4.02,4.02,0,0,0-1.424-7.781H10.773A9.773,9.773,0,0,0,6.4,25.366l.45.225v1.235l-.437.164a8.383,8.383,0,0,0-5.408,7.657H1v11.7H15.629v-4.19l2.926-1.048v5.239h9.509a2.2,2.2,0,0,0,2.194-2.194V33.183h1.6a2.17,2.17,0,0,0-.135.731v8.777a2.2,2.2,0,0,0,2.194,2.194h8.777a2.2,2.2,0,0,0,2.194-2.194V33.915a2.182,2.182,0,0,0-.161-.816,2.191,2.191,0,0,0,1.624-2.109V22.212A2.19,2.19,0,0,0,44.725,20.1Zm-13-17.639h4.389V5.389H31.72Zm-7.314.731a.733.733,0,0,1,.731-.731h5.12V6.851h7.314V2.463h5.12a.733.733,0,0,1,.731.731V19.286a.733.733,0,0,1-.731.731H25.137a.733.733,0,0,1-.731-.731ZM39.035,21.48H40.5v1.463H39.035Zm-11.7,0h1.463v1.463H27.332ZM21.48,27.332h6.583a.731.731,0,1,1,0,1.463H21.48ZM9.429,38.954l10.429-2.98.527-1.578a1.337,1.337,0,0,1,2.215-.523l.772.773h1.149a1.35,1.35,0,0,1,1.348,1.349,1.373,1.373,0,0,1-1.034,1.314l-11.865,4.25a6.885,6.885,0,0,1-2.32.4H9.668a6.882,6.882,0,0,1-2.69-.555Zm9.125-6.264v2.136l-3.573,1.02a15.679,15.679,0,0,0-.7-1.935ZM16.319,19.5l-2.153.718v2.419A1.767,1.767,0,0,1,12.4,24.407H9.777v1.463H11.24v3.487a15.691,15.691,0,0,0-2.926-2.413V21.177L7.066,19.929a.728.728,0,0,1-.214-.518v-.125a.733.733,0,0,1,.731-.731h.731V16.36A1.464,1.464,0,0,1,9.777,14.9H13.6a1.462,1.462,0,0,1,1.3.8A13.5,13.5,0,0,1,16.319,19.5ZM2.463,16.624a8.32,8.32,0,0,1,8.31-8.31h3.759a2.56,2.56,0,1,1,0,5.12H9.777A2.929,2.929,0,0,0,6.851,16.36v.857a2.2,2.2,0,0,0-1.463,2.069v.125a2.181,2.181,0,0,0,.643,1.552l.82.82v2.153a8.253,8.253,0,0,1-4.389-7.311ZM6.928,28.359l.56-.211a14.407,14.407,0,0,1,6.088,8.1L9.518,37.407l-.288-.864a6.2,6.2,0,0,0-4.4-4.07l-.355,1.419a4.742,4.742,0,0,1,3.363,3.114l.366,1.1L5.65,40.665c-.158-.113-.312-.233-.461-.361l-.323-.277A6.882,6.882,0,0,1,6.928,28.359Zm7.238,16.528H2.463V39.5a8.332,8.332,0,0,0,1.451,1.635l.323.277a8.348,8.348,0,0,0,5.43,2.009h.982a8.328,8.328,0,0,0,2.814-.489l.7-.252Zm13.9,0H20.017v-4.3L25.279,38.7a2.811,2.811,0,0,0-.758-5.518h-.543l-.345-.345a2.727,2.727,0,0,0-3.615-.272V30.257h8.046a2.17,2.17,0,0,0,.731-.135V44.155A.732.732,0,0,1,28.063,44.886Zm2.194-16.823a2.2,2.2,0,0,0-2.194-2.194h-5.12V22.212a.733.733,0,0,1,.731-.731h2.194v2.926h4.389V21.48h2.194a.733.733,0,0,1,.731.731v8.777a.732.732,0,0,1-.731.731H30.257ZM43.423,42.692a.732.732,0,0,1-.731.731H33.915a.732.732,0,0,1-.731-.731V33.915a.732.732,0,0,1,.731-.731h2.194v2.926H40.5V33.183h2.194a.732.732,0,0,1,.731.731Zm-5.851-9.509h1.463v1.463H37.572Zm7.314-2.194a.732.732,0,0,1-.731.731H35.378a.732.732,0,0,1-.731-.731V22.212a.733.733,0,0,1,.731-.731h2.194v2.926H41.96V21.48h2.194a.733.733,0,0,1,.731.731Z" fill="#6b23ae"/>
    <path id="Path_296" data-name="Path 296" d="M51,23h1.463v1.463H51Z" transform="translate(-13.428 -5.908)" fill="#6b23ae"/>
    <path id="Path_297" data-name="Path 297" d="M55,23h1.463v1.463H55Z" transform="translate(-14.502 -5.908)" fill="#6b23ae"/>
    <path id="Path_298" data-name="Path 298" d="M47,23h1.463v1.463H47Z" transform="translate(-12.354 -5.908)" fill="#6b23ae"/>
    <path id="Path_299" data-name="Path 299" d="M47,19h7.314v1.463H47Z" transform="translate(-12.354 -4.834)" fill="#6b23ae"/>
  </g>
</svg>
