<svg xmlns="http://www.w3.org/2000/svg" width="39.333" height="39.332" viewBox="0 0 39.333 39.332">
  <g id="sale" transform="translate(0.001 -0.007)">
    <path id="Path_328" data-name="Path 328" d="M15.194,39.339a3.927,3.927,0,0,1-1.1-.158,3.844,3.844,0,0,1-2.79-3.818,1.408,1.408,0,0,0-.658-1.242,1.363,1.363,0,0,0-1.358-.08A3.813,3.813,0,0,1,4.7,33.107a3.864,3.864,0,0,1-.306-4.735A1.421,1.421,0,0,0,4.5,26.965,1.384,1.384,0,0,0,3.4,26.149a3.895,3.895,0,0,1-1.065-7.43,1.442,1.442,0,0,0,.341-2.42,3.862,3.862,0,0,1-1.035-4.624,3.823,3.823,0,0,1,4.141-2.2,1.37,1.37,0,0,0,1.283-.464A1.419,1.419,0,0,0,7.35,7.624,3.857,3.857,0,0,1,8.967,3.167a3.81,3.81,0,0,1,4.667.4,1.366,1.366,0,0,0,1.33.31,1.392,1.392,0,0,0,.969-1,3.861,3.861,0,0,1,7.466,0,1.392,1.392,0,0,0,.969,1,1.366,1.366,0,0,0,1.33-.31,3.81,3.81,0,0,1,4.667-.4,3.857,3.857,0,0,1,1.617,4.457,1.419,1.419,0,0,0,.287,1.383,1.37,1.37,0,0,0,1.283.464,3.822,3.822,0,0,1,4.141,2.2A3.862,3.862,0,0,1,36.658,16.3,1.442,1.442,0,0,0,37,18.718a3.895,3.895,0,0,1-1.065,7.43,1.384,1.384,0,0,0-1.107.816,1.421,1.421,0,0,0,.111,1.408,3.864,3.864,0,0,1-.306,4.735,3.813,3.813,0,0,1-4.588.934,1.364,1.364,0,0,0-1.358.08,1.408,1.408,0,0,0-.658,1.242,3.863,3.863,0,0,1-7.164,2.111,1.4,1.4,0,0,0-2.4,0A3.817,3.817,0,0,1,15.194,39.339Zm4.472-5a3.835,3.835,0,0,1,3.3,1.86,1.347,1.347,0,0,0,1.586.624,1.381,1.381,0,0,0,1.02-1.407,3.867,3.867,0,0,1,1.79-3.364,3.822,3.822,0,0,1,3.76-.22,1.345,1.345,0,0,0,1.661-.34,1.4,1.4,0,0,0,.113-1.754,3.893,3.893,0,0,1,2.74-6.028A1.375,1.375,0,0,0,36.857,22.5a1.389,1.389,0,0,0-.839-1.524,3.9,3.9,0,0,1-.939-6.559,1.4,1.4,0,0,0,.38-1.712,1.356,1.356,0,0,0-1.5-.805,3.829,3.829,0,0,1-3.542-1.275,3.879,3.879,0,0,1-.777-3.733,1.393,1.393,0,0,0-.594-1.648,1.342,1.342,0,0,0-1.688.148,3.824,3.824,0,0,1-3.677.854A3.851,3.851,0,0,1,21.024,3.52a1.4,1.4,0,0,0-2.717,0,3.851,3.851,0,0,1-2.654,2.721,3.824,3.824,0,0,1-3.676-.854,1.342,1.342,0,0,0-1.688-.148A1.393,1.393,0,0,0,9.7,6.888a3.879,3.879,0,0,1-.777,3.733A3.829,3.829,0,0,1,5.376,11.9a1.356,1.356,0,0,0-1.5.805,1.4,1.4,0,0,0,.38,1.712,3.9,3.9,0,0,1-.939,6.559A1.389,1.389,0,0,0,2.474,22.5,1.375,1.375,0,0,0,3.7,23.709a3.893,3.893,0,0,1,2.74,6.028,1.4,1.4,0,0,0,.113,1.754,1.345,1.345,0,0,0,1.661.34,3.822,3.822,0,0,1,3.76.22,3.867,3.867,0,0,1,1.79,3.364,1.381,1.381,0,0,0,1.02,1.407,1.347,1.347,0,0,0,1.586-.624,3.835,3.835,0,0,1,3.3-1.861Z" transform="translate(0)" fill="#6b23ae"/>
    <path id="Path_329" data-name="Path 329" d="M161.234,174.754a1.229,1.229,0,0,1-.869-2.1l12.291-12.291a1.229,1.229,0,1,1,1.738,1.738L162.1,174.394A1.225,1.225,0,0,1,161.234,174.754Z" transform="translate(-147.714 -147.706)" fill="#6b23ae"/>
    <path id="Path_330" data-name="Path 330" d="M178.463,148.922a2.458,2.458,0,1,1,2.458-2.458A2.461,2.461,0,0,1,178.463,148.922Zm0-2.458a.011.011,0,0,0,0,0Z" transform="translate(-162.485 -132.936)" fill="#6b23ae"/>
    <path id="Path_331" data-name="Path 331" d="M274.463,308.922a2.458,2.458,0,1,1,2.458-2.458A2.461,2.461,0,0,1,274.463,308.922Zm0-2.458a.012.012,0,0,0,0,0Z" transform="translate(-251.11 -280.645)" fill="#6b23ae"/>
  </g>
</svg>
