<svg id="Layer_1" enable-background="new 0 0 512 512" height="512" viewBox="0 0 512 512" width="512" xmlns="http://www.w3.org/2000/svg"><g><g><g><g><g><g><path d="m410.675 504.486h-309.653c-11.345 0-20.543-9.197-20.543-20.543v-408.049c0-11.345 9.197-20.543 20.543-20.543h309.653c11.345 0 20.543 9.197 20.543 20.543v408.05c0 11.345-9.198 20.542-20.543 20.542z" fill="#7776d0"/><path d="m119.365 55.351h272.966v409.643h-272.966z" fill="#fff5b5"/><path d="m352.332 55.351h40v409.643h-40z" fill="#ffef8f"/><path d="m185.64 40.572v20.632c0 11.052 8.96 20.012 20.012 20.012h100.392c11.053 0 20.012-8.96 20.012-20.012 0-6.909 0-13.818 0-20.727 0-7.231-3.904-13.898-10.202-17.451-37.013-20.881-82.869-20.571-119.923.046-6.351 3.534-10.291 10.232-10.291 17.5z" fill="#ffd54d"/></g><g><g><ellipse cx="333.774" cy="165.3" fill="#a6f5cf" rx="17.396" ry="17.366"/></g><g><ellipse cx="333.774" cy="239.5" fill="#ff8ccc" rx="17.396" ry="17.366"/></g><g><ellipse cx="333.774" cy="313.7" fill="#a6f5cf" rx="17.396" ry="17.366"/></g><g><g><ellipse cx="333.774" cy="387.899" fill="#a6f5cf" rx="17.396" ry="17.366"/></g></g></g></g><g><path d="m462.549 432.118h41.951l-20.975 52.142z" fill="#7776d0"/><path d="m462.549 155.269h41.951v276.849h-41.951z" fill="#ffd54d"/><path d="m504.5 166.717h-41.951v-39.391c0-11.584 9.391-20.975 20.975-20.975 11.584 0 20.975 9.391 20.975 20.975v39.391z" fill="#ff8ccc"/></g></g></g><g><ellipse cx="96.786" cy="349.01" fill="#a6f5cf" rx="89.286" ry="89.476"/><path d="m96.786 259.534c-6.876 0-13.57.779-20 2.254 39.682 9.1 69.286 44.697 69.286 87.222 0 42.526-29.604 78.122-69.286 87.222 6.43 1.474 13.124 2.254 20 2.254 49.311 0 89.286-40.06 89.286-89.476-.001-49.416-39.975-89.476-89.286-89.476z" fill="#8aedbd"/></g></g><g><path d="m410.675 47.85h-77.118v-7.374c0-9.915-5.371-19.104-14.018-23.983-38.962-21.981-87.724-21.972-127.253.025-8.725 4.854-14.145 14.07-14.145 24.054v7.278h-77.119c-15.463 0-28.043 12.58-28.043 28.043v49.426c0 4.143 3.358 7.5 7.5 7.5s7.5-3.357 7.5-7.5v-49.426c0-7.192 5.851-13.043 13.043-13.043h10.843v190.36c-7.831-1.233-15.996-1.494-23.886-.777v-85.715c0-4.143-3.358-7.5-7.5-7.5s-7.5 3.357-7.5 7.5v88.285c-41.895 10.655-72.979 48.762-72.979 94.007s31.084 83.352 72.979 94.008v40.925c0 15.463 12.58 28.043 28.043 28.043h309.653c15.463 0 28.043-12.58 28.043-28.043v-408.05c0-15.462-12.58-28.043-28.043-28.043zm-217.534-7.278c0-4.543 2.467-8.737 6.438-10.946 17.521-9.75 37.083-14.625 56.574-14.625 19.442 0 38.813 4.852 56.016 14.557 3.94 2.223 6.388 6.407 6.388 10.919v20.728c0 6.899-5.613 12.512-12.512 12.512h-100.392c-6.899 0-12.512-5.612-12.512-12.512zm-66.276 22.278h51.325c.855 14.406 12.845 25.865 27.463 25.865h100.392c14.618 0 26.608-11.459 27.463-25.865h51.324v394.644h-257.967v-16.302c23.563-7.738 43.169-24.312 54.896-45.793h96.134c9.697 0 9.697-15 0-15h-89.528c3.372-9.849 5.203-20.409 5.203-31.39 0-9.661-1.418-18.997-4.055-27.81h88.38c9.697 0 9.697-15 0-15h-94.275c-11.447-23.216-31.899-41.21-56.755-49.372zm-111.865 286.16c0-45.201 36.689-81.976 81.786-81.976s81.786 36.774 81.786 81.976-36.689 81.977-81.786 81.977-81.786-36.775-81.786-81.977zm408.718 134.933c0 7.192-5.851 13.043-13.043 13.043h-309.653c-7.192 0-13.043-5.851-13.043-13.043v-38.355c7.891.716 16.056.455 23.886-.777v20.184c0 4.143 3.358 7.5 7.5 7.5h272.966c4.142 0 7.5-3.357 7.5-7.5v-402.145h10.843c7.192 0 13.043 5.852 13.043 13.043v408.05z"/><path d="m230.254 54.85h51.189c4.142 0 7.5-3.357 7.5-7.5s-3.358-7.5-7.5-7.5h-51.189c-4.142 0-7.5 3.357-7.5 7.5s3.358 7.5 7.5 7.5z"/><path d="m160.527 172.801h117.369c9.697 0 9.697-15 0-15h-117.369c-9.697 0-9.697 15 0 15z"/><path d="m333.774 190.166c13.728 0 24.896-11.154 24.896-24.865s-11.168-24.866-24.896-24.866-24.896 11.155-24.896 24.866 11.168 24.865 24.896 24.865zm0-34.732c5.457 0 9.896 4.426 9.896 9.866 0 5.439-4.439 9.865-9.896 9.865s-9.896-4.426-9.896-9.865c0-5.44 4.439-9.866 9.896-9.866z"/><path d="m285.396 239.5c0-4.143-3.358-7.5-7.5-7.5h-117.369c-9.697 0-9.697 15 0 15h117.369c4.142 0 7.5-3.358 7.5-7.5z"/><path d="m333.774 264.366c13.728 0 24.896-11.155 24.896-24.866s-11.168-24.865-24.896-24.865-24.896 11.154-24.896 24.865 11.168 24.866 24.896 24.866zm0-34.731c5.457 0 9.896 4.426 9.896 9.865 0 5.44-4.439 9.866-9.896 9.866s-9.896-4.426-9.896-9.866 4.439-9.865 9.896-9.865z"/><path d="m333.774 338.565c13.728 0 24.896-11.154 24.896-24.865s-11.168-24.866-24.896-24.866-24.896 11.155-24.896 24.866 11.168 24.865 24.896 24.865zm0-34.731c5.457 0 9.896 4.426 9.896 9.866 0 5.439-4.439 9.865-9.896 9.865s-9.896-4.426-9.896-9.865c0-5.44 4.439-9.866 9.896-9.866z"/><path d="m333.774 412.766c13.728 0 24.896-11.155 24.896-24.866s-11.168-24.866-24.896-24.866-24.896 11.155-24.896 24.866 11.168 24.866 24.896 24.866zm0-34.733c5.457 0 9.896 4.426 9.896 9.866s-4.439 9.866-9.896 9.866-9.896-4.426-9.896-9.866 4.439-9.866 9.896-9.866z"/><path d="m483.524 98.851c-15.701 0-28.475 12.774-28.475 28.476v216.338c0 9.697 15 9.697 15 0v-169.447h26.951v250.4h-26.951v-40.988c0-9.697-15-9.697-15 0v48.488c0 1.003.214 2.042.603 2.951l20.914 51.989c2.471 6.144 11.445 6.144 13.916 0l20.914-51.989c.35-.817.603-2.03.603-2.951v-304.791c.001-15.701-12.773-28.476-28.475-28.476zm.001 15c7.43 0 13.475 6.045 13.475 13.476v31.89h-26.951v-31.89c0-7.431 6.045-13.476 13.476-13.476zm0 350.313-9.875-24.546h19.749z"/><path d="m58.908 336.639c0-4.061 3.29-7.364 7.333-7.364s7.333 3.304 7.333 7.364c0 9.697 15 9.697 15 0 0-12.332-10.019-22.364-22.333-22.364s-22.333 10.032-22.333 22.364c0 9.697 15 9.697 15 0z"/><path d="m111.239 344.139c4.142 0 7.5-3.357 7.5-7.5 0-4.061 3.29-7.364 7.333-7.364s7.333 3.304 7.333 7.364c0 9.697 15 9.697 15 0 0-12.332-10.019-22.364-22.333-22.364-12.315 0-22.333 10.032-22.333 22.364 0 4.142 3.358 7.5 7.5 7.5z"/><path d="m134.967 383.022c6.85-6.864-3.768-17.46-10.618-10.596-7.371 7.386-17.159 11.454-27.563 11.454s-20.193-4.068-27.563-11.454c-6.85-6.863-17.468 3.732-10.618 10.596 10.205 10.227 23.765 15.858 38.182 15.858s27.975-5.631 38.18-15.858z"/></g></g></svg>