<svg xmlns="http://www.w3.org/2000/svg" width="53.541" height="53.541" viewBox="0 0 53.541 53.541">
  <g id="Product" transform="translate(-2 -2.001)">
    <path id="Path_283" data-name="Path 283" d="M15.385,50.784H14.37a6.229,6.229,0,0,0,1.015-3.406V45.134a4.447,4.447,0,0,0-.242-1.45l-2.76-8.025a2.682,2.682,0,0,0-1.817-1.874L12.249,27.5a2.647,2.647,0,0,0-1.062-2.893,2.5,2.5,0,0,0-.8-.382,2.525,2.525,0,0,0-.714-.1,2.647,2.647,0,0,0-2.575,1.94L2.333,40.7A4.5,4.5,0,0,0,2.211,43l1.376,5.347a6.238,6.238,0,0,1,.2,1.553v.881H2.892A.892.892,0,0,0,2,51.676v5.354a.892.892,0,0,0,.892.892H15.385a.892.892,0,0,0,.892-.892V51.676A.892.892,0,0,0,15.385,50.784ZM5.316,47.9,3.951,42.6a2.677,2.677,0,0,1,.079-1.354L8.807,26.566a.882.882,0,0,1,1.09-.619.789.789,0,0,1,.273.13.877.877,0,0,1,.357.963L8.684,33.919a2.652,2.652,0,0,0-1.562,2.427,2.456,2.456,0,0,0,.089.693l1.615,6.034a.892.892,0,0,0,1.724-.462L8.933,36.556a.747.747,0,0,1-.026-.211.866.866,0,0,1,.592-.83c.021-.007.105-.036.119-.038a.9.9,0,0,1,1.06.7l2.778,8.084a2.66,2.66,0,0,1,.145.869v2.244a4.45,4.45,0,0,1-.75,2.475l-.62.931H5.569V49.9a8.06,8.06,0,0,0-.253-2Zm9.177,8.236H3.785V52.569H14.493Z" transform="translate(0 -2.382)" fill="#6b23ae"/>
    <path id="Path_284" data-name="Path 284" d="M46,51.677v5.354a.892.892,0,0,0,.892.892H59.385a.892.892,0,0,0,.892-.892V51.677a.892.892,0,0,0-.892-.892h-.892V49.9a6.24,6.24,0,0,1,.2-1.558L60.066,43a4.5,4.5,0,0,0-.121-2.3l-4.762-14.63a2.647,2.647,0,0,0-2.571-1.936,2.525,2.525,0,0,0-.714.1,2.5,2.5,0,0,0-.8.382A2.647,2.647,0,0,0,50.033,27.5l1.678,6.285a2.682,2.682,0,0,0-1.817,1.874l-2.76,8.025a4.447,4.447,0,0,0-.242,1.447v2.244a6.23,6.23,0,0,0,1.015,3.406H46.892A.892.892,0,0,0,46,51.677ZM56.708,49.9v.881H50.047l-.62-.931a4.45,4.45,0,0,1-.75-2.475V45.134a2.66,2.66,0,0,1,.145-.869L51.6,36.181a.9.9,0,0,1,1.06-.7,1.127,1.127,0,0,1,.119.038.866.866,0,0,1,.592.83.747.747,0,0,1-.026.211l-1.621,6.055a.892.892,0,1,0,1.724.462l1.615-6.034a2.456,2.456,0,0,0,.089-.693,2.652,2.652,0,0,0-1.558-2.427l-1.842-6.88a.877.877,0,0,1,.357-.963.789.789,0,0,1,.273-.13.882.882,0,0,1,1.09.619l4.777,14.683a2.677,2.677,0,0,1,.079,1.354l-1.365,5.3A8.06,8.06,0,0,0,56.708,49.9Zm-8.924,2.665H58.493v3.569H47.785Z" transform="translate(-4.737 -2.382)" fill="#6b23ae"/>
    <path id="Path_285" data-name="Path 285" d="M44.8,8.321,30.527,2.075a.892.892,0,0,0-.714,0L15.535,8.321A.892.892,0,0,0,15,9.139V26.986a.892.892,0,0,0,.487.8l14.278,7.264a.892.892,0,0,0,.405.1.9.9,0,0,0,.4-.095l14.278-7.174a.892.892,0,0,0,.492-.8V9.139A.892.892,0,0,0,44.8,8.321ZM30.17,3.866,42.221,9.139,30.17,14.412l-3.132-1.371L31.8,10.956a.892.892,0,0,0,0-1.635l-3.829-1.67a.892.892,0,0,0-.714,0l-6.274,2.742L18.123,9.139Zm-8.031,8.98,1.785.781v3.884l-1.785-.892Zm1.071-1.478,4.4-1.925,1.6.7-4.4,1.927ZM16.785,10.5l3.569,1.562V17.17a.892.892,0,0,0,.493.8l3.569,1.785a.892.892,0,0,0,1.291-.8V14.4l3.569,1.562V32.794L16.785,26.439ZM31.062,32.8V15.969L43.555,10.5V26.525Z" transform="translate(-1.399)" fill="#6b23ae"/>
    <path id="Path_286" data-name="Path 286" d="M38.067,29.221l-3.576,1.8a.893.893,0,0,0,.8,1.595l3.576-1.8a.893.893,0,1,0-.8-1.595Z" transform="translate(-3.445 -2.92)" fill="#6b23ae"/>
    <path id="Path_287" data-name="Path 287" d="M34.892,28.711a.892.892,0,0,0,.4-.095l3.525-1.771a.893.893,0,0,0-.8-1.595L34.49,27.022a.892.892,0,0,0,.4,1.689Z" transform="translate(-3.445 -2.493)" fill="#6b23ae"/>
  </g>
</svg>
