<!-- <svg xmlns="http://www.w3.org/2000/svg" xmlns:xlink="http://www.w3.org/1999/xlink" enable-background="new 0 0 128 170" height="170px" id="Layer_1" version="1.1" viewBox="0 0 128 170" width="128px" xml:space="preserve" style="&#10;    /* fill: red; */&#10;"><g><path d="M63.798,121H59v22h5.422c3.709,0,6.56-1.023,8.554-2.896c1.993-1.871,2.99-4.637,2.99-8.207   s-0.997-6.202-2.99-8.127C70.981,121.846,67.923,121,63.798,121z" fill="#D1473E"/><path d="M37.721,122.136c-1.267-0.884-3.233-1.136-5.902-1.136H27v12h5.65c2.704,0,4.541-0.626,5.512-1.718   c0.971-1.093,1.456-2.631,1.456-4.729C39.618,124.456,38.985,123.02,37.721,122.136z" fill="#D1473E"/><path d="M127.613,29l0.004-0.004L99,0.379V0h-0.379l-0.117-0.117L98.387,0H10C4.478,0,0,4.477,0,10v150   c0,5.523,4.478,10,10,10h108c5.522,0,10-4.477,10-10V29H127.613z M44.013,136.811C41.395,138.89,37.399,140,32.026,140H27v10h-8   v-36h12.923c5.581,0,9.646,0.91,12.193,3.076c2.548,2.167,3.822,5.443,3.822,9.932C47.938,131.498,46.63,134.73,44.013,136.811z    M79.06,145.061C75.68,148.354,70.522,150,63.59,150H51v-36h13.006c6.481,0,11.457,1.412,14.924,4.584   c3.466,3.172,5.2,7.496,5.2,13.146C84.13,137.382,82.439,141.768,79.06,145.061z M113,121H96v8h16v7H96v14h-8v-36h25V121z M109,29   c-5.522,0-10-4.477-10-10V4.622L123.379,29H109z" fill="#D1473E"/></g></svg> -->
<svg xmlns="http://www.w3.org/2000/svg" xmlns:xlink="http://www.w3.org/1999/xlink" version="1.1" width="350" height="350" viewBox="0 0 350 350" xml:space="preserve">
<desc>Created with Fabric.js 1.7.22</desc>
<defs>
</defs>
<g id="icon" style="stroke: none; stroke-width: 1; stroke-dasharray: none; stroke-linecap: butt; stroke-linejoin: miter; stroke-miterlimit: 10; fill: none; fill-rule: nonzero; opacity: 1;" transform="translate(-1.9444444444444287 -1.9444444444444287) scale(3.89 3.89)">
	<path d="M 78.806 62.716 V 20.496 c 0 -1.214 -0.473 -2.356 -1.332 -3.216 L 61.526 1.332 C 60.667 0.473 59.525 0 58.31 0 H 15.742 c -2.508 0 -4.548 2.04 -4.548 4.548 V 43.16 v 19.556 C 34.114 65.376 56.665 65.47 78.806 62.716 z" style="stroke: none; stroke-width: 1; stroke-dasharray: none; stroke-linecap: butt; stroke-linejoin: miter; stroke-miterlimit: 10; fill: rgb(220,223,225); fill-rule: nonzero; opacity: 1;" transform=" matrix(1 0 0 1 0 0) " stroke-linecap="round"/>
	<path d="M 11.194 62.716 v 11.23 v 11.506 c 0 2.508 2.04 4.548 4.548 4.548 h 58.517 c 2.508 0 4.548 -2.04 4.548 -4.548 V 62.716 H 11.194 z" style="stroke: none; stroke-width: 1; stroke-dasharray: none; stroke-linecap: butt; stroke-linejoin: miter; stroke-miterlimit: 10; fill: rgb(234,84,64); fill-rule: nonzero; opacity: 1;" transform=" matrix(1 0 0 1 0 0) " stroke-linecap="round"/>
	<polygon points="60.27,18.41 78.81,36.88 78.73,19.73 " style="stroke: none; stroke-width: 1; stroke-dasharray: none; stroke-linecap: butt; stroke-linejoin: miter; stroke-miterlimit: 10; fill: rgb(196,203,210); fill-rule: nonzero; opacity: 1;" transform="  matrix(1 0 0 1 0 0) "/>
	<path d="M 77.474 17.28 L 61.526 1.332 c -0.675 -0.676 -1.529 -1.102 -2.453 -1.258 v 15.382 c 0 2.358 1.919 4.277 4.277 4.277 h 15.382 C 78.576 18.81 78.15 17.956 77.474 17.28 z" style="stroke: none; stroke-width: 1; stroke-dasharray: none; stroke-linecap: butt; stroke-linejoin: miter; stroke-miterlimit: 10; fill: rgb(171,178,184); fill-rule: nonzero; opacity: 1;" transform=" matrix(1 0 0 1 0 0) " stroke-linecap="round"/>
	<path d="M 33.092 68.321 h -4.374 c -0.69 0 -1.25 0.56 -1.25 1.25 v 8.091 v 5.541 c 0 0.69 0.56 1.25 1.25 1.25 s 1.25 -0.56 1.25 -1.25 v -4.291 h 3.124 c 2.254 0 4.088 -1.834 4.088 -4.088 v -2.415 C 37.18 70.155 35.346 68.321 33.092 68.321 z M 34.68 74.824 c 0 0.876 -0.712 1.588 -1.588 1.588 h -3.124 v -5.591 h 3.124 c 0.876 0 1.588 0.712 1.588 1.588 V 74.824 z" style="stroke: none; stroke-width: 1; stroke-dasharray: none; stroke-linecap: butt; stroke-linejoin: miter; stroke-miterlimit: 10; fill: rgb(255,255,255); fill-rule: nonzero; opacity: 1;" transform=" matrix(1 0 0 1 0 0) " stroke-linecap="round"/>
	<path d="M 45.351 84.453 H 41.27 c -0.69 0 -1.25 -0.56 -1.25 -1.25 V 69.571 c 0 -0.69 0.56 -1.25 1.25 -1.25 h 4.082 c 2.416 0 4.38 1.965 4.38 4.38 v 7.371 C 49.731 82.488 47.767 84.453 45.351 84.453 z M 42.52 81.953 h 2.832 c 1.037 0 1.88 -0.844 1.88 -1.881 v -7.371 c 0 -1.036 -0.844 -1.88 -1.88 -1.88 H 42.52 V 81.953 z" style="stroke: none; stroke-width: 1; stroke-dasharray: none; stroke-linecap: butt; stroke-linejoin: miter; stroke-miterlimit: 10; fill: rgb(255,255,255); fill-rule: nonzero; opacity: 1;" transform=" matrix(1 0 0 1 0 0) " stroke-linecap="round"/>
	<path d="M 61.282 68.321 H 54.07 c -0.69 0 -1.25 0.56 -1.25 1.25 v 13.632 c 0 0.69 0.56 1.25 1.25 1.25 s 1.25 -0.56 1.25 -1.25 v -5.566 h 3.473 c 0.69 0 1.25 -0.56 1.25 -1.25 s -0.56 -1.25 -1.25 -1.25 H 55.32 v -4.315 h 5.962 c 0.69 0 1.25 -0.56 1.25 -1.25 S 61.973 68.321 61.282 68.321 z" style="stroke: none; stroke-width: 1; stroke-dasharray: none; stroke-linecap: butt; stroke-linejoin: miter; stroke-miterlimit: 10; fill: rgb(255,255,255); fill-rule: nonzero; opacity: 1;" transform=" matrix(1 0 0 1 0 0) " stroke-linecap="round"/>
	<path d="M 60.137 40.012 c -0.154 -0.374 -0.52 -0.617 -0.924 -0.617 h -4.805 V 27.616 c 0 -0.552 -0.447 -1 -1 -1 H 40.592 c -0.552 0 -1 0.448 -1 1 v 11.778 h -4.805 c -0.404 0 -0.769 0.244 -0.924 0.617 c -0.155 0.374 -0.069 0.804 0.217 1.09 l 12.213 12.213 c 0.195 0.195 0.451 0.293 0.707 0.293 s 0.512 -0.098 0.707 -0.293 L 59.92 41.102 C 60.206 40.815 60.292 40.386 60.137 40.012 z" style="stroke: none; stroke-width: 1; stroke-dasharray: none; stroke-linecap: butt; stroke-linejoin: miter; stroke-miterlimit: 10; fill: rgb(196,203,210); fill-rule: nonzero; opacity: 1;" transform=" matrix(1 0 0 1 0 0) " stroke-linecap="round"/>
	<path d="M 58.137 38.012 c -0.154 -0.374 -0.52 -0.617 -0.924 -0.617 h -4.805 V 25.616 c 0 -0.552 -0.447 -1 -1 -1 H 38.592 c -0.552 0 -1 0.448 -1 1 v 11.778 h -4.805 c -0.404 0 -0.769 0.244 -0.924 0.617 c -0.155 0.374 -0.069 0.804 0.217 1.09 l 12.213 12.213 c 0.195 0.195 0.451 0.293 0.707 0.293 s 0.512 -0.098 0.707 -0.293 L 57.92 39.102 C 58.206 38.815 58.292 38.386 58.137 38.012 z" style="stroke: none; stroke-width: 1; stroke-dasharray: none; stroke-linecap: butt; stroke-linejoin: miter; stroke-miterlimit: 10; fill: rgb(234,84,64); fill-rule: nonzero; opacity: 1;" transform=" matrix(1 0 0 1 0 0) " stroke-linecap="round"/>
</g>
</svg>