<svg xmlns="http://www.w3.org/2000/svg" width="59.22" height="55.188" viewBox="0 0 59.22 55.188">
  <g id="product" transform="translate(-9 -25.634)">
    <path id="Path_274" data-name="Path 274" d="M64.613,49.414H61.627a2.941,2.941,0,0,0-2.807-2.158H55.633V39.461a.822.822,0,0,0-.4-.727L32.745,25.746a.83.83,0,0,0-.835,0L9.417,38.734A.837.837,0,0,0,9,39.461V65.437a.839.839,0,0,0,.42.727l22.5,12.988a.839.839,0,0,0,.42.112.883.883,0,0,0,.432-.112L44.6,72.323v4.936a3.553,3.553,0,0,0,3.583,3.563H64.613a3.573,3.573,0,0,0,3.606-3.563V53.032a3.62,3.62,0,0,0-3.606-3.618Zm-5.763-.48a1.218,1.218,0,0,1,1.218,1.218v.081a1.218,1.218,0,0,1-1.218,1.218H53.974a1.218,1.218,0,0,1-1.218-1.218v-.081a1.218,1.218,0,0,1,1.218-1.218ZM32.335,27.442l9.347,5.4L20.866,44.857l-9.347-5.4Zm-.8,49.529L10.678,64.952V40.912L31.537,52.931Zm.8-25.493-9.79-5.652L43.36,33.808l9.791,5.652ZM44.6,53.032V70.385L33.215,76.971V52.931L53.954,40.912v6.343h.026a2.941,2.941,0,0,0-2.807,2.158H48.187A3.6,3.6,0,0,0,44.6,53.032ZM66.541,77.259a1.893,1.893,0,0,1-1.928,1.884H48.187a1.873,1.873,0,0,1-1.9-1.884V53.032a1.921,1.921,0,0,1,1.9-1.94h3.019A2.87,2.87,0,0,0,53.98,53.13h4.84a2.87,2.87,0,0,0,2.774-2.038h3.019a1.94,1.94,0,0,1,1.928,1.94Z" transform="translate(0)" fill="#6c24ad"/>
    <path id="Path_275" data-name="Path 275" d="M337.833,283.634h.878a.839.839,0,0,0,0-1.678h-.033v-2.278h2.314a.808.808,0,0,0,.8.567.841.841,0,0,0,.844-.837v-.565a.85.85,0,0,0-.848-.843h-3.953a.837.837,0,0,0-.833.843V282.8a.833.833,0,0,0,.833.838Z" transform="translate(-288.68 -222.113)" fill="#6c24ad"/>
    <path id="Path_276" data-name="Path 276" d="M337.839,347.634H341.8a.839.839,0,0,0,.839-.839v-3.956A.839.839,0,0,0,341.8,342h-3.956a.839.839,0,0,0-.839.839V346.8A.839.839,0,0,0,337.839,347.634Zm.839-3.956h2.278v2.278h-2.278Z" transform="translate(-288.68 -278.441)" fill="#6c24ad"/>
    <path id="Path_277" data-name="Path 277" d="M338.711,409.956h-.033v-2.278h2.269a.843.843,0,1,0,1.687,0v-.809a.875.875,0,0,0-.848-.871h-3.953a.862.862,0,0,0-.833.871v3.953a.809.809,0,0,0,.833.81h.878a.839.839,0,0,0,0-1.678Z" transform="translate(-288.68 -334.769)" fill="#6c24ad"/>
    <path id="Path_278" data-name="Path 278" d="M358.992,284.785l-2.457,2.457-.748-.748a.839.839,0,0,0-1.187,1.187l1.341,1.341a.839.839,0,0,0,1.187,0l3.051-3.051a.839.839,0,0,0-1.187-1.187Z" transform="translate(-303.954 -227.868)" fill="#6c24ad"/>
    <path id="Path_279" data-name="Path 279" d="M358.992,414.034l-2.457,2.457-.748-.748a.839.839,0,0,0-1.187,1.187l1.341,1.341a.839.839,0,0,0,1.187,0l3.051-3.051a.839.839,0,0,0-1.187-1.187Z" transform="translate(-303.954 -341.623)" fill="#6c24ad"/>
    <path id="Path_280" data-name="Path 280" d="M420,295H414.73a.839.839,0,1,0,0,1.678H420A.839.839,0,1,0,420,295Z" transform="translate(-356.354 -237.075)" fill="#6c24ad"/>
    <path id="Path_281" data-name="Path 281" d="M420,359H414.73a.839.839,0,0,0,0,1.678H420A.839.839,0,1,0,420,359Z" transform="translate(-356.354 -293.403)" fill="#6c24ad"/>
    <path id="Path_282" data-name="Path 282" d="M420,423H414.73a.839.839,0,0,0,0,1.678H420A.839.839,0,0,0,420,423Z" transform="translate(-356.354 -349.731)" fill="#6c24ad"/>
  </g>
</svg>
