<svg xmlns="http://www.w3.org/2000/svg" width="41.781" height="46.239" viewBox="0 0 41.781 46.239">
  <g id="Group_871" data-name="Group 871" transform="translate(-315.823 -372.325)">
    <g id="seo-report" transform="translate(305.535 371.768)">
      <path id="Path_311" data-name="Path 311" d="M109.82,26.826a.361.361,0,0,0,0-.05l-.592-4.025a.681.681,0,0,0-.674-.583h-2.475a.681.681,0,0,0-.674.583l-.592,4.025c0,.017,0,.033,0,.05a.343.343,0,0,0,0,.049V48.714c0,.014,0,.028,0,.041a.607.607,0,0,0,.007.07.617.617,0,0,0,.017.072c0,.013,0,.026.009.039l1.828,5.31a.681.681,0,0,0,1.287,0l1.833-5.308c0-.013.005-.026.009-.039a.617.617,0,0,0,.017-.072.607.607,0,0,0,.007-.07c0-.014,0-.027,0-.041V26.875a.337.337,0,0,0-.006-.049Zm-1.357,13.209h-2.3V27.556h2.3Zm-2.3,1.361h2.3v6.638h-2.3Zm1.8-17.865.392,2.663h-2.083l.392-2.663Zm-.65,28.4-.875-2.54h1.75Z" transform="translate(-57.757 -10.762)" fill="#6b23ae"/>
      <path id="Path_312" data-name="Path 312" d="M47.871,51.872H28.445a.681.681,0,0,0,0,1.361H47.871a.681.681,0,0,0,0-1.361Z" transform="translate(-10.679 -28.913)" fill="#6b23ae"/>
      <path id="Path_313" data-name="Path 313" d="M47.871,62.8H28.445a.681.681,0,1,0,0,1.361H47.871a.681.681,0,1,0,0-1.361Z" transform="translate(-10.679 -35.591)" fill="#6b23ae"/>
      <path id="Path_314" data-name="Path 314" d="M47.871,40.941H28.445a.681.681,0,0,0,0,1.361H47.871a.681.681,0,0,0,0-1.361Z" transform="translate(-10.679 -22.233)" fill="#6b23ae"/>
      <path id="Path_315" data-name="Path 315" d="M51.818,20H62.154a.681.681,0,1,0,0-1.361H51.818a.681.681,0,0,0,0,1.361Z" transform="translate(-24.962 -8.604)" fill="#6b23ae"/>
      <path id="Path_316" data-name="Path 316" d="M31.041,90.818h-2.6a.681.681,0,0,0-.681.681V97.35a.68.68,0,0,0,.681.681h2.6a.681.681,0,0,0,.681-.681V91.5A.681.681,0,0,0,31.041,90.818Zm-.681,5.851H29.125v-4.49H30.36Z" transform="translate(-10.679 -52.712)" fill="#6b23ae"/>
      <path id="Path_317" data-name="Path 317" d="M45.466,80.248h-2.6a.681.681,0,0,0-.681.681v9.962a.681.681,0,0,0,.681.681h2.6a.68.68,0,0,0,.681-.681V80.929a.681.681,0,0,0-.681-.681Zm-.681,9.962H43.55v-8.6h1.235Z" transform="translate(-19.494 -46.253)" fill="#6b23ae"/>
      <path id="Path_318" data-name="Path 318" d="M59.891,84.328h-2.6a.681.681,0,0,0-.681.681v8.375a.681.681,0,0,0,.681.681h2.6a.681.681,0,0,0,.681-.681V85.009A.681.681,0,0,0,59.891,84.328ZM59.21,92.7H57.975V85.689H59.21Z" transform="translate(-28.309 -48.746)" fill="#6b23ae"/>
      <path id="Path_319" data-name="Path 319" d="M74.316,72.957h-2.6a.681.681,0,0,0-.681.681v12.8a.68.68,0,0,0,.681.681h2.6A.68.68,0,0,0,75,86.436v-12.8A.681.681,0,0,0,74.316,72.957Zm-.681,12.8H72.4V74.318h1.234Z" transform="translate(-37.124 -41.798)" fill="#6b23ae"/>
    </g>
    <path id="Path_310" data-name="Path 310" d="M43.991,4.557H19.831a.7.7,0,0,0-.123.012H19.7a.661.661,0,0,0-.164.058l-.039.021a.687.687,0,0,0-.143.106L10.487,13.62a.678.678,0,0,0-.107.145l-.019.036a.685.685,0,0,0-.06.166v.007a.684.684,0,0,0-.013.127V50.115a.68.68,0,0,0,.681.681H43.991a.681.681,0,0,0,.681-.681V5.238a.681.681,0,0,0-.681-.681ZM19.15,6.881v6.54h-6.54ZM43.31,49.433H11.648V14.78h8.183a.681.681,0,0,0,.681-.681V5.918h22.8Z" transform="translate(305.535 367.768)" fill="#6b23ae"/>
  </g>
</svg>
