<svg xmlns="http://www.w3.org/2000/svg" width="52.728" height="53.606" viewBox="0 0 52.728 53.606">
  <g id="money" transform="translate(-3.997 0)">
    <g id="Group_655" data-name="Group 655" transform="translate(26.371 0)">
      <g id="Group_654" data-name="Group 654" transform="translate(0 0)">
        <path id="Path_288" data-name="Path 288" d="M207.677,1.94l.949,1.48a10.691,10.691,0,0,1,11.352,0l.949-1.48A12.284,12.284,0,0,0,207.677,1.94Z" transform="translate(-207.677 0)" fill="#6b23ae"/>
      </g>
    </g>
    <g id="Group_657" data-name="Group 657" transform="translate(20.694 12.303)">
      <g id="Group_656" data-name="Group 656">
        <path id="Path_289" data-name="Path 289" d="M157.754,111.992H156a12.217,12.217,0,0,0,.947,4.736l1.622-.678A10.456,10.456,0,0,1,157.754,111.992Z" transform="translate(-155.997 -111.992)" fill="#6b23ae"/>
      </g>
    </g>
    <g id="Group_659" data-name="Group 659" transform="translate(32.998 22.037)">
      <g id="Group_658" data-name="Group 658">
        <path id="Path_290" data-name="Path 290" d="M272.05,200.608a10.432,10.432,0,0,1-4.053.811v1.758a12.192,12.192,0,0,0,4.733-.946Z" transform="translate(-267.997 -200.608)" fill="#6b23ae"/>
      </g>
    </g>
    <g id="Group_661" data-name="Group 661" transform="translate(42.732 12.303)">
      <g id="Group_660" data-name="Group 660">
        <path id="Path_291" data-name="Path 291" d="M357.424,111.992a10.451,10.451,0,0,1-.811,4.055l1.622.678a12.2,12.2,0,0,0,.946-4.733Z" transform="translate(-356.613 -111.992)" fill="#6b23ae"/>
      </g>
    </g>
    <g id="Group_663" data-name="Group 663" transform="translate(24.21 3.515)">
      <g id="Group_662" data-name="Group 662">
        <path id="Path_292" data-name="Path 292" d="M196.785,31.992a8.788,8.788,0,1,0,8.788,8.788A8.788,8.788,0,0,0,196.785,31.992Zm0,15.819a7.03,7.03,0,1,1,7.03-7.03A7.03,7.03,0,0,1,196.785,47.811Z" transform="translate(-187.997 -31.992)" fill="#6b23ae"/>
      </g>
    </g>
    <g id="Group_665" data-name="Group 665" transform="translate(29.482 7.03)">
      <g id="Group_664" data-name="Group 664" transform="translate(0)">
        <path id="Path_293" data-name="Path 293" d="M241.446,68.984l-1.055-.352V66.378a1.318,1.318,0,0,1,.879,1.129h1.758a3.181,3.181,0,0,0-2.636-2.967v-.548h-1.758v.548A3.181,3.181,0,0,0,236,67.507a2.209,2.209,0,0,0,1.582,2.038l1.055.352V72.15a1.318,1.318,0,0,1-.879-1.128H236a3.181,3.181,0,0,0,2.636,2.967v.548h1.758v-.548a3.181,3.181,0,0,0,2.636-2.967A2.209,2.209,0,0,0,241.446,68.984Zm-2.812-.937-.5-.169c-.222-.075-.378-.228-.378-.372a1.318,1.318,0,0,1,.879-1.129Zm1.758,4.1v-1.67l.5.169c.222.075.378.228.378.372A1.318,1.318,0,0,1,240.391,72.152Z" transform="translate(-235.997 -63.992)" fill="#6b23ae"/>
      </g>
    </g>
    <g id="Group_667" data-name="Group 667" transform="translate(3.997 16.697)">
      <g id="Group_666" data-name="Group 666" transform="translate(0)">
        <path id="Path_294" data-name="Path 294" d="M56.468,171.585l-2.894-2.894,2.894-2.894a.879.879,0,0,0,0-1.243L45.043,153.13a.879.879,0,0,0-1.243,0L32.558,164.372,20.437,152.251a.879.879,0,0,0-1.243,0L7.77,163.676a.879.879,0,0,0,0,1.243l6.409,6.409H4v1.758H15.421a.867.867,0,0,0,.346-.071l5.986-2.565h13v3.515H25.088a.879.879,0,0,0-.368,1.677l11.424,5.273a.879.879,0,0,0,.879-.088l15.22-10.983,2.314,2.314-17.491,14.99h-4.79l-16.551-6.1a.881.881,0,0,0-.3-.054H4v1.758H15.264l16.551,6.1a.878.878,0,0,0,.3.054h5.273a.874.874,0,0,0,.571-.212l18.455-15.819a.879.879,0,0,0,.1-1.239C56.5,171.617,56.484,171.6,56.468,171.585Zm-34.895-2.894a.865.865,0,0,0-.346.071l-.214.088a4.369,4.369,0,0,1,8.089-.159Zm9.408,0a6.125,6.125,0,0,0-5.892-4.394,6.191,6.191,0,0,0-6.107,5.428L16.237,170.9l-6.6-6.6,10.182-10.182,14.576,14.576ZM36.415,179.1l-7.326-3.381h6.544a.879.879,0,0,0,.879-.879v-4.03l4.772,4.772Zm.18-10.692A3.945,3.945,0,1,1,41.188,173Zm6.019,6.017a5.7,5.7,0,0,0,1.007-.532l-.893.645Zm9.147-6.408-7.744,5.594a5.712,5.712,0,1,0-8.848-6.628L33.8,165.615l10.621-10.621L54.6,165.176Z" transform="translate(-3.997 -151.994)" fill="#6b23ae"/>
      </g>
    </g>
  </g>
</svg>
